# xmcd CD database file
#
# Track frame offsets:
#	150
#	18045
#	37497
#	67993
#	86887
#	116726
#	154986
#	178854
#	205660
#	228165
#	278516
#
# Disc length: 4429 seconds
#
# Revision: 2
# Processed by: cddbd v1.4b41PL1 Copyright (c) Steve Scherf et al.
# Submitted via: Feurio! 1.50.2ß - http://www.feurio.com
#
DISCID=92114b0b
DTITLE=Stevie Ray Vaughan - Live 16.12.2000
DYEAR=1900
DGENRE=
TTITLE0=Stevie Ray Vaughan and Double Trouble - Testify
TTITLE1=Stevie Ray Vaughan and Double Trouble - So Excited
TTITLE2=Stevie Ray Vaughan and Double Trouble - Willie The Wimp
TTITLE3=Mary had a little lamb
TTITLE4=Stevie Ray Vaughan and Double Trouble - Cold Shot
TTITLE5=Stevie Ray Vaughan and Double Trouble - Tin Pan Alley
TTITLE6=Stevie Ray Vaughan and Double Trouble - Tightrope
TTITLE7=Wall Of Denial
TTITLE8=Superstition
TTITLE9=Stevie Ray Vaughan and Double Trouble - Lenny
TTITLE10=Voodoo Chile
EXTD=
EXTT0=
EXTT1=
EXTT2=
EXTT3=
EXTT4=
EXTT5=
EXTT6=
EXTT7=
EXTT8=
EXTT9=
EXTT10=
PLAYORDER=
